# File created by Blade
# Date/Time:  Thu Jan 22 16:04:59 2015
# Frame Rate: 120.000 fps
#------------------------------------------------------
:FULLY-SPECIFIED
:DEGREES
1909
root 3.756398 36.837202 4.578385 -5.817226 -0.863686 2.151923
RightUpLeg 13.178651 -5.628629 -10.242720
RightLeg -5.711758 -0.000000 0.000000
RightFoot -9.413257 -13.027839 19.137054
RightToeBase 11.233027 -0.000000 -0.000000
LeftUpLeg 9.942067 -2.594443 6.368483
LeftLeg -2.859965 -0.000000 0.000000
LeftFoot -4.613205 4.370432 -21.679396
LeftToeBase 6.781913 -0.000000 -0.000000
Spine 4.264445 -3.416819 -2.467912
RightShoulder 30.262297 -10.585794 -19.979091
RightArm 81.379528 -33.575625 32.758873
RightForeArm -38.189410 0.000000 15.151174
RightHand 1.647256 -0.000000 9.025065
RightHandThumb1 -24.326973 -0.000000 -32.862282
LeftShoulder 14.976269 23.118458 19.787135
LeftArm 82.371531 19.228494 -54.451306
LeftForeArm 59.174877 -0.000000 5.975000
LeftHand -11.887680 0.000000 -18.883935
LeftHandThumb1 -26.253704 0.000000 33.147579
Head 6.519062 13.371435 3.038192
1910
root 3.760505 36.836688 4.584684 -5.811021 -0.906397 2.164188
RightUpLeg 13.168925 -5.634562 -10.263084
RightLeg -5.709986 -0.000000 0.000000
RightFoot -9.420822 -13.000026 19.127703
RightToeBase 11.294575 -0.000000 -0.000000
LeftUpLeg 9.955918 -2.599989 6.348605
LeftLeg -2.864770 -0.000000 0.000000
LeftFoot -4.633412 4.404227 -21.667398
LeftToeBase 6.797439 -0.000000 -0.000000
Spine 4.289689 -3.348175 -2.494294
RightShoulder 30.235299 -10.596081 -19.872723
RightArm 80.793201 -34.060540 33.399189
RightForeArm -38.759547 -0.000000 15.270207
RightHand 1.755015 -0.000000 9.214218
RightHandThumb1 -24.326973 -0.000000 -32.862282
LeftShoulder 14.860361 23.267828 19.479696
LeftArm 82.198095 19.552711 -54.421755
LeftForeArm 59.052853 -0.000000 6.043328
LeftHand -11.840782 -0.000000 -18.854009
LeftHandThumb1 -26.253704 0.000000 33.147579
Head 6.355763 13.348442 3.024869
1911
root 3.764045 36.836222 4.590179 -5.795302 -0.940456 2.174580
RightUpLeg 13.147451 -5.652429 -10.279519
RightLeg -5.704688 -0.000000 0.000000
RightFoot -9.413943 -12.955991 19.118654
RightToeBase 11.302384 -0.000000 -0.000000
LeftUpLeg 9.962087 -2.615346 6.328329
LeftLeg -2.872974 -0.000000 0.000000
LeftFoot -4.658430 4.449724 -21.658427
LeftToeBase 6.787181 -0.000000 -0.000000
Spine 4.304326 -3.310168 -2.524442
RightShoulder 30.236924 -10.628321 -19.778089
RightArm 80.164778 -34.511415 34.069025
RightForeArm -39.374660 -0.000000 15.448292
RightHand 1.714174 -0.000000 9.365843
RightHandThumb1 -24.326973 -0.000000 -32.862282
LeftShoulder 14.727887 23.349120 19.148842
LeftArm 81.960458 19.902948 -54.383199
LeftForeArm 58.817957 -0.000000 6.165515
LeftHand -11.882697 -0.000000 -19.026163
LeftHandThumb1 -26.253704 0.000000 33.147579
Head 6.200518 13.314751 2.994231
1912
root 3.771512 36.836165 4.595631 -5.778624 -0.964879 2.199901
RightUpLeg 13.129237 -5.685735 -10.322407
RightLeg -5.698200 -0.000000 0.000000
RightFoot -9.404349 -12.923241 19.102572
RightToeBase 11.294946 -0.000000 -0.000000
LeftUpLeg 9.968806 -2.630964 6.284528
LeftLeg -2.890533 -0.000000 0.000000
LeftFoot -4.676976 4.503611 -21.646684
LeftToeBase 6.816782 -0.000000 -0.000000
Spine 4.327454 -3.304344 -2.561225
RightShoulder 30.258611 -10.694789 -19.717083
RightArm 79.661157 -34.890349 34.566430
RightForeArm -39.921966 -0.000000 15.561844
RightHand 1.868367 -0.000000 9.443022
RightHandThumb1 -24.326973 -0.000000 -32.862282
LeftShoulder 14.551246 23.465174 18.838866
LeftArm 81.836673 20.285710 -54.209170
LeftForeArm 58.891356 -0.000000 6.221655
LeftHand -11.893460 -0.000000 -18.851975
LeftHandThumb1 -26.253704 0.000000 33.147579
Head 6.030552 13.300632 2.945865
1913
root 3.772011 36.835287 4.598340 -5.756427 -0.999313 2.208040
RightUpLeg 13.109676 -5.644749 -10.322515
RightLeg -5.717690 -0.000000 0.000000
RightFoot -9.404849 -12.917264 19.080461
RightToeBase 11.322546 -0.000000 -0.000000
LeftUpLeg 9.961146 -2.602555 6.279539
LeftLeg -2.896153 -0.000000 0.000000
LeftFoot -4.679073 4.500934 -21.659406
LeftToeBase 6.770261 -0.000000 -0.000000
Spine 4.355441 -3.273786 -2.602629
RightShoulder 30.273104 -10.740214 -19.644093
RightArm 79.272451 -35.272680 34.911816
RightForeArm -40.166073 -0.000000 15.639594
RightHand 1.913201 -0.000000 9.543471
RightHandThumb1 -24.326973 -0.000000 -32.862282
LeftShoulder 14.433168 23.630899 18.613001
LeftArm 81.790096 20.573039 -54.062768
LeftForeArm 58.605959 0.000000 6.259554
LeftHand -11.823976 0.000000 -18.932705
LeftHandThumb1 -26.253704 0.000000 33.147579
Head 5.842415 13.251944 2.934146
1914
root 3.772711 36.834455 4.601634 -5.741767 -1.039167 2.199653
RightUpLeg 13.078445 -5.636712 -10.313966
RightLeg -5.696533 -0.000000 0.000000
RightFoot -9.420623 -12.888589 19.093788
RightToeBase 11.341550 -0.000000 -0.000000
LeftUpLeg 9.972197 -2.564673 6.292216
LeftLeg -2.919423 -0.000000 0.000000
LeftFoot -4.685288 4.495707 -21.662903
LeftToeBase 6.824137 -0.000000 -0.000000
Spine 4.372875 -3.260006 -2.611939
RightShoulder 30.333723 -10.825036 -19.634889
RightArm 79.013301 -35.592376 35.091757
RightForeArm -40.424051 -0.000000 15.678635
RightHand 2.012132 -0.000000 9.647990
RightHandThumb1 -24.326973 -0.000000 -32.862282
LeftShoulder 14.347219 23.769863 18.398631
LeftArm 81.688343 20.872949 -53.953144
LeftForeArm 58.469933 -0.000000 6.288685
LeftHand -11.940966 -0.000000 -18.812640
LeftHandThumb1 -26.253704 0.000000 33.147579
Head 5.724334 13.219790 2.903681
1915
root 3.775164 36.833300 4.602979 -5.732136 -1.070721 2.198097
RightUpLeg 13.054903 -5.620886 -10.313442
RightLeg -5.681890 -0.000000 0.000000
RightFoot -9.423649 -12.875663 19.088344
RightToeBase 11.295697 -0.000000 -0.000000
LeftUpLeg 9.979320 -2.532737 6.293081
LeftLeg -2.932154 -0.000000 0.000000
LeftFoot -4.697114 4.490370 -21.650747
LeftToeBase 6.809726 -0.000000 -0.000000
Spine 4.401805 -3.255957 -2.625082
RightShoulder 30.410001 -10.886859 -19.645194
RightArm 78.801175 -35.894238 35.225076
RightForeArm -40.445499 -0.000000 15.692566
RightHand 2.061637 -0.000000 9.698221
RightHandThumb1 -24.326973 -0.000000 -32.862282
LeftShoulder 14.310099 23.865175 18.258766
LeftArm 81.544294 21.159287 -53.933973
LeftForeArm 58.421179 -0.000000 6.303063
LeftHand -11.969365 -0.000000 -18.732786
LeftHandThumb1 -26.253704 0.000000 33.147579
Head 5.607706 13.243301 2.882977
1916
root 3.778231 36.832553 4.604110 -5.735692 -1.096005 2.203641
RightUpLeg 13.051673 -5.594248 -10.324243
RightLeg -5.677659 -0.000000 0.000000
RightFoot -9.424795 -12.864188 19.092390
RightToeBase 11.344157 -0.000000 -0.000000
LeftUpLeg 10.002670 -2.504052 6.284971
LeftLeg -2.952934 -0.000000 0.000000
LeftFoot -4.686736 4.481322 -21.613819
LeftToeBase 6.766870 -0.000000 -0.000000
Spine 4.447783 -3.250103 -2.653844
RightShoulder 30.481432 -10.984981 -19.664359
RightArm 78.522881 -36.115885 35.482254
RightForeArm -40.583320 -0.000000 15.705280
RightHand 2.175565 0.000000 9.840968
RightHandThumb1 -24.326973 -0.000000 -32.862282
LeftShoulder 14.321424 23.964546 18.117193
LeftArm 81.336956 21.358261 -54.036110
LeftForeArm 58.360806 -0.000000 6.346169
LeftHand -11.904110 -0.000000 -18.658328
LeftHandThumb1 -26.253704 0.000000 33.147579
Head 5.507968 13.190129 2.859891
1917
root 3.781460 36.831789 4.605182 -5.737043 -1.120209 2.210910
RightUpLeg 13.045226 -5.576986 -10.336328
RightLeg -5.673350 -0.000000 0.000000
RightFoot -9.428432 -12.847156 19.094421
RightToeBase 11.280864 -0.000000 -0.000000
LeftUpLeg 10.020877 -2.484841 6.274968
LeftLeg -2.971418 -0.000000 0.000000
LeftFoot -4.693845 4.487128 -21.614367
LeftToeBase 6.766224 -0.000000 -0.000000
Spine 4.502758 -3.234298 -2.687648
RightShoulder 30.494238 -11.055532 -19.638964
RightArm 78.092735 -36.325958 35.986864
RightForeArm -40.849148 0.000000 15.736959
RightHand 2.376223 -0.000000 10.059900
RightHandThumb1 -24.326973 -0.000000 -32.862282
LeftShoulder 14.343795 24.087867 17.995747
LeftArm 81.193677 21.516513 -54.126952
LeftForeArm 58.325394 -0.000000 6.403735
LeftHand -11.884171 -0.000000 -18.686158
LeftHandThumb1 -26.253704 0.000000 33.147579
Head 5.377567 13.166493 2.851057
1918
root 3.782941 36.831385 4.602066 -5.712067 -1.141013 2.203346
RightUpLeg 13.003744 -5.561015 -10.324922
RightLeg -5.660551 -0.000000 0.000000
RightFoot -9.429206 -12.848586 19.078779
RightToeBase 11.310924 -0.000000 -0.000000
LeftUpLeg 9.998050 -2.453101 6.289157
LeftLeg -2.976430 -0.000000 0.000000
LeftFoot -4.687861 4.455336 -21.632986
LeftToeBase 6.802606 -0.000000 -0.000000
Spine 4.536821 -3.239930 -2.704393
RightShoulder 30.488451 -11.133087 -19.605987
RightArm 77.871268 -36.540653 36.157351
RightForeArm -40.647761 -0.000000 15.813502
RightHand 2.290761 -0.000000 10.210381
RightHandThumb1 -24.326973 -0.000000 -32.862282
LeftShoulder 14.354998 24.110692 17.851237
LeftArm 80.990498 21.713347 -54.236535
LeftForeArm 58.407089 -0.000000 6.440514
LeftHand -11.909287 -0.000000 -18.740386
LeftHandThumb1 -26.253704 0.000000 33.147579
Head 5.237011 13.187329 2.857070
1919
root 3.785787 36.830702 4.600354 -5.702621 -1.160756 2.210105
RightUpLeg 12.987554 -5.532929 -10.332284
RightLeg -5.663039 -0.000000 0.000000
RightFoot -9.437273 -12.846071 19.089400
RightToeBase 11.346265 -0.000000 -0.000000
LeftUpLeg 10.002950 -2.417903 6.282107
LeftLeg -3.000763 -0.000000 0.000000
LeftFoot -4.672371 4.450010 -21.649209
LeftToeBase 6.783281 -0.000000 -0.000000
Spine 4.596334 -3.272503 -2.738259
RightShoulder 30.487530 -11.127066 -19.538726
RightArm 77.390804 -36.771477 36.721975
RightForeArm -40.667554 -0.000000 15.880790
RightHand 2.187707 -0.000000 10.285433
RightHandThumb1 -24.326973 -0.000000 -32.862282
LeftShoulder 14.305878 24.149165 17.674694
LeftArm 80.922675 21.893748 -54.133284
LeftForeArm 58.129379 -0.000000 6.453657
LeftHand -11.894058 -0.000000 -18.886972
LeftHandThumb1 -26.253704 0.000000 33.147579
Head 5.052274 13.203104 2.806963
